<?xml version="1.0" standalone="no"?><!DOCTYPE svg PUBLIC "-//W3C//DTD SVG 1.1//EN" "http://www.w3.org/Graphics/SVG/1.1/DTD/svg11.dtd"><svg t="1625448888850" class="icon" viewBox="0 0 1024 1024" version="1.1" xmlns="http://www.w3.org/2000/svg" p-id="44903" xmlns:xlink="http://www.w3.org/1999/xlink" width="200" height="200"><defs><style type="text/css"></style></defs><path d="M723.781818 525.963636a197.818182 197.818182 0 0 1 162.397091 310.830546l44.474182 44.497454a34.909091 34.909091 0 0 1-49.361455 49.361455l-44.497454-44.474182A197.818182 197.818182 0 1 1 723.781818 525.963636z m-244.363636 0v302.545455a93.090909 93.090909 0 0 1-93.090909 93.090909h-209.454546a93.090909 93.090909 0 0 1-93.090909-93.090909v-209.454546a93.090909 93.090909 0 0 1 93.090909-93.090909h302.545455z m244.363636 69.818182a128 128 0 1 0 0 256 128 128 0 0 0 0-256z m-337.454545-512a93.090909 93.090909 0 0 1 93.090909 93.090909v302.545455h-302.545455a93.090909 93.090909 0 0 1-93.090909-93.090909v-209.454546a93.090909 93.090909 0 0 1 93.090909-93.090909h209.454546z m442.181818 0a93.090909 93.090909 0 0 1 93.090909 93.090909v209.454546a93.090909 93.090909 0 0 1-93.090909 93.090909h-302.545455v-302.545455a93.090909 93.090909 0 0 1 93.090909-93.090909h209.454546z" p-id="44904"></path></svg>