<?xml version="1.0" standalone="no"?><!DOCTYPE svg PUBLIC "-//W3C//DTD SVG 1.1//EN" "http://www.w3.org/Graphics/SVG/1.1/DTD/svg11.dtd"><svg t="1625448862009" class="icon" viewBox="0 0 1041 1024" version="1.1" xmlns="http://www.w3.org/2000/svg" p-id="43767" xmlns:xlink="http://www.w3.org/1999/xlink" width="203.3203125" height="200"><defs><style type="text/css"></style></defs><path d="M317.748985 1024a68.198536 68.198536 0 1 1 68.198537-68.198536 68.453961 68.453961 0 0 1-68.198537 68.198536zM956.056634 571.641919l81.480648-317.748986a82.246924 82.246924 0 0 0-13.026687-73.30704 88.632555 88.632555 0 0 0-71.519064-33.971556H206.12816L198.720828 102.170347a127.712615 127.712615 0 0 0-125.413787-102.170092H23.499121a23.499121 23.499121 0 0 0 0 46.742817H56.19355a103.958068 103.958068 0 0 1 103.702644 61.302055l106.00147 635.497971a127.712615 127.712615 0 0 0 125.158362 102.170092h599.738439a23.499121 23.499121 0 1 0 0-46.742817H383.137844a95.273611 95.273611 0 0 1-78.415545-61.302055l-2.554253-15.325514 528.730225-40.357186c56.19355 0 110.088274-56.959826 125.158363-110.343699zM847.245486 1024a68.198536 68.198536 0 1 1 68.198536-68.198536 68.198536 68.198536 0 0 1-68.198536 68.198536z" fill="#0C0C0C" p-id="43768"></path></svg>